<?xml version="1.0" encoding="utf-8"?>
<!-- Generator: Adobe Illustrator 22.1.0, SVG Export Plug-In . SVG Version: 6.00 Build 0)  -->
<svg version="1.1" id="Layer_1" xmlns="http://www.w3.org/2000/svg" xmlns:xlink="http://www.w3.org/1999/xlink" x="0px" y="0px"
	 viewBox="0 0 512 512" style="enable-background:new 0 0 512 512;" xml:space="preserve">
<style type="text/css">
	.st0{fill:#EBDBB2;}
	.st1{fill:#282828;}
</style>
<g>
	<g>
		<path class="st0" d="M381,407.3l29.5-51c2.1-2.6,3.8-5.6,5-8.7L496.1,208L376.1,0H135.9l-120,207.9L131,407.3L92,472H47.8v40
			h416.4v-40H420L381,407.3z M381.6,376.3c-0.2-2.1-0.6-4.2-1.2-6.2c0.6,0,1.1,0,1.7,0c1.1,0,2.1-0.1,3.1-0.1L381.6,376.3z
			 M401.9,341.1l-3.8,6.6c-3.9,4.5-9.6,7.4-16,7.4c-11.6,0-21-9.4-21-21s9.4-21,21-21s21,9.4,21,21
			C403.1,336.6,402.7,338.9,401.9,341.1z M295.1,369.3c2.5,0.5,5.1,0.8,7.7,0.8c3,0,5.9-0.4,8.6-1.1c-1.1,3.4-1.6,7-1.6,10.8
			c0,7.8,2.5,15.1,6.8,21h-26.7c4.3-5.9,6.8-13.2,6.8-21C296.6,376.2,296.1,372.6,295.1,369.3z M302.8,355.1c-11.6,0-21-9.4-21-21
			s9.4-21,21-21c1.5,0,3,0.2,4.4,0.5l15.8,26.3C320.5,348.6,312.4,355.1,302.8,355.1z M266.7,334.1c0,3.7,0.6,7.2,1.6,10.6
			c-2.5-0.5-5.1-0.8-7.7-0.8c-5,0-9.7,1-14,2.8c-2.3-17.7-17.4-31.4-35.7-31.4c-2.6,0-5.1,0.3-7.6,0.8l26.5-44
			c7.9,3.8,16.8,6,26.2,6c8.8,0,17.2-1.9,24.8-5.3c-0.1,1.1-0.2,2.3-0.2,3.4c0,9.3,3.6,17.9,9.4,24.3
			C276.5,305.5,266.7,318.7,266.7,334.1z M281.6,379.9c0,11.6-9.4,21-21,21s-21-9.4-21-21s9.4-21,21-21S281.6,368.3,281.6,379.9z
			 M210.9,372.4c-7.1,0-13.3-3.5-17.1-8.9c-0.6-1.2-1.2-2.3-1.9-3.4c-1.2-2.7-2-5.7-2-8.8c0-3.5,0.9-6.8,2.4-9.7
			c0.9-1.2,1.8-2.5,2.6-3.8c3.9-4.6,9.6-7.5,16.1-7.5c11.6,0,21,9.4,21,21S222.5,372.4,210.9,372.4z M231.4,400.9h-40.5
			c3.4-4.7,5.6-10.2,6.5-16.2c4.2,1.7,8.7,2.6,13.5,2.6c5,0,9.7-1,14-2.8C225.7,390.6,228,396.1,231.4,400.9z M210.6,217.6
			c0-25.1,20.4-45.4,45.4-45.4s45.4,20.4,45.4,45.4c0,25.1-20.4,45.4-45.4,45.4S210.6,242.7,210.6,217.6z M316.7,297.1
			c-0.7,0-1.3,0-1.9-0.1l-17.5-29c3.2-7.6,10.7-12.9,19.4-12.9c11.6,0,21,9.4,21,21S328.2,297.1,316.7,297.1z M333.9,227.5
			c0-11.6,9.4-21,21-21s21,9.4,21,21s-9.4,21-21,21S333.9,239.1,333.9,227.5z M352.6,360c8.2,2.8,14.2,10.7,14.2,19.9
			c0,1.1-0.1,2.2-0.3,3.3L352.6,360z M357.5,397.3c-3.4,2.3-7.4,3.6-11.8,3.6c-11.6,0-21-9.4-21-21c0-8,4.5-15,11.1-18.5
			L357.5,397.3z M127,370.3L33.2,207.9L144.6,15h222.8l111.4,192.9l-64.1,110.9c-5.7-12.3-18.2-20.8-32.6-20.8
			c-19.9,0-36,16.2-36,36c0,3.4,0.5,6.7,1.4,9.8c-0.6,0-1.1,0-1.7,0c-0.9,0-1.9,0-2.8,0.1l-4.3-7.1c0.1-0.9,0.1-1.8,0.1-2.7
			c0-9.3-3.6-17.9-9.4-24.3c13.6-5.1,23.3-18.3,23.3-33.7c0-4.6-0.9-8.9-2.4-12.9c1.5,0.2,3.1,0.3,4.6,0.3c3.4,0,6.8-0.5,9.9-1.4
			c0.1,19.8,16.2,35.9,36,35.9c19.9,0,36-16.2,36-36s-16.2-36-36-36c-3.4,0-6.8,0.5-9.9,1.4c-0.1-19.8-16.2-35.9-36-35.9
			c-19.9,0-36,16.2-36,36c0,4.6,0.9,8.9,2.4,12.9c-1.5-0.2-3.1-0.3-4.6-0.3c-1.6,0-3.2,0.1-4.7,0.3c2.9-7,4.5-14.7,4.5-22.8
			c0-33.3-27.1-60.4-60.4-60.4s-60.4,27.1-60.4,60.4c0,18.6,8.4,35.2,21.6,46.3l-22.6,37.5c-4.4-7.4-11.4-13.1-19.6-15.8
			c12.3-5.8,20.8-18.2,20.8-32.6c0-19.9-16.2-36-36-36s-36,16.2-36,36c0,15.9,10.4,29.4,24.7,34.2c-12.3,5.8-20.8,18.2-20.8,32.6
			c0,12.1,6,22.9,15.2,29.4C135.2,353.9,129.4,361.4,127,370.3z M379.8,262c0-11.6,9.4-21,21-21s21,9.4,21,21s-9.4,21-21,21
			S379.8,273.6,379.8,262z M174.8,363.5c1.5,1.2,2.9,2.6,4,4.2c0.6,1.2,1.2,2.3,1.9,3.4c1.2,2.7,2,5.7,2,8.8c0,11.6-9.4,21-21,21
			c-3,0-5.8-0.6-8.3-1.7L174.8,363.5z M142.4,388.2c-1.1-2.6-1.7-5.4-1.7-8.4c0-11,8.6-20.1,19.4-20.9L142.4,388.2z M172,339.1
			c-2.6,1.1-5.4,1.7-8.3,1.7c-11.6,0-21-9.4-21-21s9.4-21,21-21c11,0,20.1,8.5,20.9,19.4L172,339.1z M138.7,253c0-11.6,9.4-21,21-21
			s21,9.4,21,21s-9.4,21-21,21S138.7,264.6,138.7,253z M143.3,415.9h225.4l33.8,56.1h-293L143.3,415.9z M449.2,497H62.8v-10h386.4
			L449.2,497L449.2,497z"/>
	</g>
</g>
<g>
	<g>
		<path class="st1" d="M256,178c-21.9,0-39.6,17.8-39.6,39.6s17.8,39.6,39.6,39.6s39.6-17.8,39.6-39.6S277.9,178,256,178z
			 M256,242.3c-13.6,0-24.6-11.1-24.6-24.6s11-24.7,24.6-24.7s24.6,11.1,24.6,24.6S269.6,242.3,256,242.3z"/>
	</g>
</g>
<g>
	<g>
		<path class="st1" d="M174.5,95.9c-19.9,0-36,16.2-36,36s16.2,36,36,36s36-16.2,36-36S194.4,95.9,174.5,95.9z M174.5,152.9
			c-11.6,0-21-9.4-21-21s9.4-21,21-21s21,9.4,21,21S186.1,152.9,174.5,152.9z"/>
	</g>
</g>
<g>
	<g>
		<path class="st1" d="M326.4,38.8c-19.9,0-36,16.2-36,36s16.2,36,36,36s36-16.2,36-36S346.2,38.8,326.4,38.8z M326.4,95.9
			c-11.6,0-21-9.4-21-21s9.4-21,21-21s21,9.4,21,21S338,95.9,326.4,95.9z"/>
	</g>
</g>
</svg>
